<?xml version="1.0" encoding="UTF-8" standalone="no"?>
<!DOCTYPE svg PUBLIC "-//W3C//DTD SVG 1.1//EN" "http://www.w3.org/Graphics/SVG/1.1/DTD/svg11.dtd">
<svg width="100%" height="100%" viewBox="0 0 2306 1579" version="1.1" xmlns="http://www.w3.org/2000/svg" xmlns:xlink="http://www.w3.org/1999/xlink" xml:space="preserve" xmlns:serif="http://www.serif.com/" style="fill-rule:evenodd;clip-rule:evenodd;stroke-linejoin:round;stroke-miterlimit:1.41421;">
    <g transform="matrix(1,0,0,1,-910.784,-475.999)">
        <g transform="matrix(5.55556,0,0,5.55556,0,0)">
            <g transform="matrix(1,0,0,1,318.878,116.48)">
                <path d="M0,195.767C-6.934,195.767 -13.774,195.064 -20.352,193.723C-59.917,185.649 -99.346,152.823 -98.247,97.683C-97.307,50.512 -68.005,13.933 -23.595,4.494C-2.443,0 19.866,2.668 39.225,12.006C60.573,22.304 77.702,40.205 88.762,63.772L79.017,63.71C68.818,41.974 54.97,29.266 35.443,19.846C17.811,11.341 -2.512,8.912 -21.786,13.009C-62.092,21.575 -88.689,54.879 -89.544,97.856C-90.544,147.986 -54.639,177.842 -18.612,185.194C16.747,192.405 59.018,182.445 77.3,137.018L86.964,137.178C70.218,178.783 34.059,195.766 0,195.767" style="fill:rgb(13,34,35);fill-rule:nonzero;"/>
            </g>
        </g>
        <g transform="matrix(5.55556,0,0,5.55556,0,0)">
            <g transform="matrix(1,0,0,1,256.123,223.745)">
                <path d="M0,-33.037L0,-33.427L13.017,-33.427C14.838,-33.427 16.518,-33.269 18.056,-32.956C19.595,-32.643 20.972,-32.225 22.189,-31.705C23.406,-31.184 24.458,-30.614 25.346,-29.994C26.233,-29.375 26.983,-28.744 27.595,-28.101C28.666,-27.03 29.577,-25.84 30.328,-24.531C31.077,-23.222 31.64,-21.841 32.015,-20.387C32.39,-18.932 32.577,-17.433 32.577,-15.886C32.577,-14.342 32.394,-12.871 32.026,-11.48C31.659,-10.086 31.131,-8.797 30.442,-7.611C29.754,-6.425 28.931,-5.348 27.974,-4.385C27.018,-3.422 25.904,-2.549 24.634,-1.767C23.547,-1.125 22.3,-0.605 20.892,-0.207C19.484,0.191 17.578,0.39 15.175,0.39L0,0.39L0,0.023L0.459,0.023C1.515,0.023 2.304,-0.376 2.824,-1.172C3.344,-1.967 3.604,-2.81 3.604,-3.696L3.604,-29.226C3.604,-30.082 3.463,-30.801 3.18,-31.384C2.897,-31.966 2.518,-32.385 2.044,-32.646C1.569,-32.907 1.041,-33.037 0.459,-33.037L0,-33.037ZM7.094,-31.82L7.094,-5.028C7.094,-3.71 7.304,-2.744 7.725,-2.124C8.146,-1.503 8.801,-1.102 9.688,-0.918C10.576,-0.735 11.877,-0.642 13.592,-0.642C16.04,-0.642 18.106,-0.884 19.79,-1.366C21.474,-1.849 23.104,-2.923 24.68,-4.592C25.843,-5.831 26.776,-7.346 27.481,-9.137C28.185,-10.927 28.537,-13.094 28.537,-15.634C28.537,-17.64 28.253,-19.626 27.687,-21.593C27.121,-23.559 26.256,-25.307 25.093,-26.837C23.792,-28.567 22.12,-29.922 20.077,-30.901C18.034,-31.881 15.573,-32.371 12.696,-32.371C11.211,-32.371 9.344,-32.187 7.094,-31.82" style="fill:rgb(13,34,35);fill-rule:nonzero;"/>
            </g>
        </g>
        <g transform="matrix(5.55556,0,0,5.55556,0,0)">
            <g transform="matrix(1,0,0,1,329.267,207.1)">
                <path d="M0,0.161C0,3.329 -0.784,6.276 -2.353,9C-3.922,11.724 -6.061,13.893 -8.77,15.509C-11.479,17.122 -14.479,17.93 -17.769,17.93C-21.075,17.93 -24.106,17.122 -26.861,15.509C-29.616,13.893 -31.785,11.716 -33.369,8.976C-34.953,6.237 -35.746,3.252 -35.746,0.023C-35.746,-2.457 -35.275,-4.786 -34.333,-6.968C-33.392,-9.148 -32.076,-11.05 -30.385,-12.672C-28.694,-14.295 -26.765,-15.551 -24.599,-16.438C-22.434,-17.324 -20.172,-17.769 -17.815,-17.769C-15.505,-17.769 -13.285,-17.344 -11.158,-16.494C-9.03,-15.646 -7.121,-14.417 -5.43,-12.811C-3.739,-11.204 -2.411,-9.297 -1.446,-7.093C-0.482,-4.89 0,-2.471 0,0.161M-4.04,0.253C-4.04,-4.248 -4.837,-7.767 -6.428,-10.309C-8.02,-12.848 -9.857,-14.551 -11.938,-15.416C-14.02,-16.28 -15.979,-16.713 -17.815,-16.713C-19.239,-16.713 -20.715,-16.48 -22.246,-16.013C-23.777,-15.545 -25.265,-14.692 -26.711,-13.454C-28.158,-12.213 -29.348,-10.469 -30.281,-8.218C-31.215,-5.968 -31.682,-3.191 -31.682,0.116C-31.682,3.023 -31.296,5.56 -30.522,7.726C-29.75,9.891 -28.686,11.659 -27.331,13.029C-25.977,14.399 -24.485,15.385 -22.855,15.99C-21.225,16.595 -19.53,16.898 -17.769,16.898C-16.193,16.898 -14.597,16.618 -12.983,16.06C-11.368,15.501 -9.891,14.589 -8.552,13.328C-7.213,12.064 -6.126,10.35 -5.291,8.185C-4.458,6.019 -4.04,3.374 -4.04,0.253" style="fill:rgb(13,34,35);fill-rule:nonzero;"/>
            </g>
        </g>
        <g transform="matrix(5.55556,0,0,5.55556,0,0)">
            <g transform="matrix(1,0,0,1,377.25,225.029)">
                <path d="M0,-34.711L0,-34.321C-0.689,-34.183 -1.301,-33.928 -1.836,-33.552C-2.373,-33.177 -2.9,-32.556 -3.42,-31.692C-3.941,-30.828 -4.484,-29.575 -5.051,-27.938L-14.532,0L-14.876,0L-23.509,-27.938L-23.624,-27.938L-33.014,0L-33.358,0L-42.978,-30.808C-43.33,-31.896 -43.75,-32.684 -44.24,-33.174C-44.73,-33.663 -45.178,-33.964 -45.583,-34.081C-45.989,-34.194 -46.49,-34.275 -47.087,-34.321L-47.087,-34.711L-36.595,-34.711L-36.595,-34.321C-37.513,-34.259 -38.206,-33.984 -38.673,-33.494C-39.14,-33.004 -39.373,-32.4 -39.373,-31.681C-39.373,-31.129 -39.243,-30.441 -38.982,-29.615L-31.843,-6.772L-31.751,-6.772L-24.082,-29.615L-24.404,-30.648C-24.711,-31.642 -25.17,-32.488 -25.782,-33.185C-26.394,-33.881 -27.351,-34.259 -28.651,-34.321L-28.651,-34.711L-17.838,-34.711L-17.838,-34.321C-19.063,-34.305 -19.855,-33.991 -20.214,-33.379C-20.574,-32.767 -20.754,-32.2 -20.754,-31.681C-20.754,-31.023 -20.639,-30.335 -20.41,-29.615L-13.361,-6.772L-13.27,-6.772L-6.083,-27.938C-5.87,-28.504 -5.674,-29.17 -5.498,-29.935C-5.323,-30.7 -5.235,-31.352 -5.235,-31.887C-5.235,-32.927 -5.46,-33.579 -5.912,-33.84C-6.363,-34.099 -7.094,-34.259 -8.104,-34.321L-8.104,-34.711L0,-34.711Z" style="fill:rgb(13,34,35);fill-rule:nonzero;"/>
            </g>
        </g>
        <g transform="matrix(5.55556,0,0,5.55556,0,0)">
            <g transform="matrix(1,0,0,1,414.418,224.984)">
                <path d="M0,-34.666L0,-34.276C-0.857,-34.169 -1.534,-34.004 -2.031,-33.782C-2.529,-33.56 -2.916,-33.123 -3.191,-32.474C-3.467,-31.823 -3.604,-30.885 -3.604,-29.661L-3.604,0L-3.834,0L-29.798,-28.972L-29.798,-8.173C-29.798,-6.443 -29.73,-5.157 -29.593,-4.315C-29.454,-3.474 -29.256,-2.87 -28.995,-2.502C-28.43,-1.706 -27.442,-1.278 -26.034,-1.217L-26.034,-0.85L-34.505,-0.85L-34.505,-1.217C-33.557,-1.262 -32.817,-1.465 -32.29,-1.825C-31.762,-2.184 -31.386,-2.842 -31.165,-3.799C-30.943,-4.756 -30.833,-6.198 -30.833,-8.126L-30.833,-30.189L-31.957,-31.451C-32.952,-32.585 -33.748,-33.3 -34.345,-33.599C-34.941,-33.897 -35.683,-34.124 -36.572,-34.276L-36.572,-34.666L-30.212,-34.666L-4.637,-6.015L-4.637,-27.847C-4.637,-29.485 -4.702,-30.709 -4.832,-31.521C-4.963,-32.333 -5.307,-32.981 -5.865,-33.472C-6.423,-33.962 -7.3,-34.23 -8.493,-34.276L-8.493,-34.666L0,-34.666Z" style="fill:rgb(13,34,35);fill-rule:nonzero;"/>
            </g>
        </g>
        <g transform="matrix(5.55556,0,0,5.55556,0,0)">
            <g transform="matrix(1,0,0,1,435.011,217.661)">
                <path d="M0,-20.846L-0.367,-20.846C-0.582,-22.484 -1.296,-23.919 -2.513,-25.151C-3.73,-26.383 -5.334,-26.999 -7.323,-26.999C-8.625,-26.999 -9.78,-26.693 -10.79,-26.081C-11.8,-25.469 -12.581,-24.634 -13.132,-23.579C-13.683,-22.522 -13.958,-21.312 -13.958,-19.951C-13.958,-18.895 -13.793,-17.957 -13.465,-17.138C-13.136,-16.319 -12.65,-15.597 -12.007,-14.969C-11.364,-14.342 -10.606,-13.755 -9.734,-13.212C-8.862,-12.67 -7.683,-11.984 -6.198,-11.158C-3.719,-9.795 -1.791,-8.437 -0.414,-7.082C0.965,-5.728 1.653,-3.872 1.653,-1.516C1.653,-0.077 1.282,1.312 0.54,2.651C-0.203,3.991 -1.323,5.089 -2.824,5.946C-4.324,6.802 -6.183,7.232 -8.403,7.232C-9.795,7.232 -11.028,7.082 -12.099,6.785C-13.17,6.484 -14.257,6.068 -15.359,5.532C-15.818,5.379 -16.131,5.303 -16.3,5.303C-16.621,5.303 -16.832,5.418 -16.931,5.647C-17.03,5.877 -17.165,6.374 -17.332,7.139L-17.723,7.139L-17.723,-1.332L-17.332,-1.332C-16.783,1.147 -15.71,3.022 -14.119,4.293C-12.527,5.564 -10.591,6.198 -8.31,6.198C-6.596,6.198 -5.222,5.877 -4.189,5.235C-3.156,4.592 -2.441,3.81 -2.043,2.892C-1.645,1.973 -1.446,1.055 -1.446,0.137C-1.446,-1.761 -2.024,-3.311 -3.179,-4.512C-4.335,-5.714 -6.092,-6.941 -8.448,-8.196C-10.07,-9.084 -11.272,-9.773 -12.052,-10.263C-12.833,-10.752 -13.625,-11.388 -14.429,-12.168C-15.233,-12.948 -15.872,-13.871 -16.346,-14.934C-16.821,-15.998 -17.057,-17.219 -17.057,-18.596C-17.057,-20.187 -16.637,-21.712 -15.795,-23.165C-14.954,-24.619 -13.759,-25.786 -12.214,-26.666C-10.668,-27.546 -8.916,-27.986 -6.956,-27.986C-5.471,-27.986 -3.948,-27.733 -2.387,-27.228C-2.142,-27.106 -1.813,-27.044 -1.4,-27.044C-0.895,-27.044 -0.551,-27.39 -0.367,-28.078L0,-28.078L0,-20.846Z" style="fill:rgb(13,34,35);fill-rule:nonzero;"/>
            </g>
        </g>
        <g transform="matrix(5.55556,0,0,5.55556,0,0)">
            <g transform="matrix(1,0,0,1,468.554,215.869)">
                <path d="M0,-18.962L-0.368,-18.962C-0.537,-21.166 -1.179,-22.593 -2.296,-23.243C-3.414,-23.895 -4.791,-24.219 -6.429,-24.219L-13.156,-24.219L-13.156,4.179C-13.156,6.582 -11.932,7.823 -9.482,7.898L-9.482,8.265L-20.249,8.265L-20.249,7.898C-19.239,7.868 -18.386,7.574 -17.689,7.015C-16.994,6.456 -16.645,5.511 -16.645,4.179L-16.645,-24.219L-23.372,-24.219C-25.01,-24.219 -26.384,-23.895 -27.493,-23.243C-28.602,-22.593 -29.249,-21.166 -29.433,-18.962L-29.8,-18.962L-29.8,-27.227L-29.433,-27.227C-29.188,-26.845 -28.974,-26.561 -28.789,-26.377C-28.607,-26.194 -28.369,-26.037 -28.078,-25.907C-27.788,-25.776 -27.447,-25.686 -27.057,-25.632C-26.666,-25.578 -26.204,-25.551 -25.667,-25.551L-3.766,-25.551C-2.312,-25.551 -1.179,-26.111 -0.368,-27.227L0,-27.227L0,-18.962Z" style="fill:rgb(13,34,35);fill-rule:nonzero;"/>
            </g>
        </g>
        <g transform="matrix(5.55556,0,0,5.55556,0,0)">
            <g transform="matrix(1,0,0,1,471.422,223.653)">
                <path d="M0,-32.853L-0.459,-32.853L-0.459,-33.335L11.25,-33.335C13.133,-33.335 14.728,-33.044 16.036,-32.463C17.345,-31.88 18.362,-31.143 19.09,-30.248C19.817,-29.352 20.337,-28.406 20.652,-27.411C20.965,-26.417 21.122,-25.436 21.122,-24.473C21.122,-23.249 20.866,-22.073 20.353,-20.948C19.84,-19.823 19.052,-18.855 17.988,-18.044C16.924,-17.233 15.597,-16.682 14.004,-16.392L14.004,-16.3C16.025,-15.321 17.892,-13.377 19.606,-10.469L22.661,-5.303C24.038,-2.992 25.143,-1.53 25.977,-0.918C26.812,-0.306 27.634,0.039 28.445,0.115L28.445,0.482L22.292,0.482C22.032,0.146 21.788,-0.179 21.559,-0.493C21.329,-0.808 21.084,-1.139 20.823,-1.492C20.67,-1.722 20.445,-2.07 20.146,-2.536C19.847,-3.004 19.667,-3.267 19.606,-3.33L15.566,-10.009C14.755,-11.371 13.925,-12.477 13.075,-13.326C12.225,-14.176 11.433,-14.785 10.699,-15.152C9.964,-15.519 9.302,-15.749 8.713,-15.841C8.124,-15.933 7.431,-15.978 6.636,-15.978L6.636,-3.604C6.636,-1.202 7.86,0.039 10.308,0.115L10.308,0.482L-0.459,0.482L-0.459,0.115C0.215,0.085 0.812,-0.043 1.332,-0.264C1.852,-0.485 2.285,-0.869 2.629,-1.411C2.974,-1.955 3.145,-2.686 3.145,-3.604L3.145,-29.179C3.145,-30.525 2.817,-31.474 2.159,-32.027C1.5,-32.577 0.781,-32.853 0,-32.853M6.636,-16.874L8.564,-16.874C10.585,-16.874 12.241,-17.165 13.534,-17.746C14.828,-18.327 15.766,-19.157 16.346,-20.237C16.929,-21.316 17.219,-22.637 17.219,-24.198C17.219,-25.499 16.958,-26.772 16.438,-28.02C15.918,-29.267 15.034,-30.316 13.786,-31.166C12.539,-32.016 10.859,-32.439 8.747,-32.439C7.89,-32.439 7.187,-32.37 6.636,-32.234L6.636,-16.874Z" style="fill:rgb(13,34,35);fill-rule:nonzero;"/>
            </g>
        </g>
        <g transform="matrix(5.55556,0,0,5.55556,0,0)">
            <g transform="matrix(1,0,0,1,501.842,223.745)">
                <path d="M0,-33.037L0,-33.427L20.157,-33.427L20.157,-28.101L19.836,-28.101C19.836,-30.947 17.937,-32.371 14.142,-32.371L7.094,-32.371L7.094,-17.011L13.292,-17.011C14.516,-17.011 15.611,-17.211 16.576,-17.609C17.539,-18.007 18.09,-18.918 18.228,-20.34L18.572,-20.34L18.572,-12.673L18.228,-12.673C18.09,-13.546 17.83,-14.214 17.447,-14.682C17.065,-15.149 16.686,-15.458 16.311,-15.611C15.936,-15.764 15.603,-15.841 15.312,-15.841C14.761,-15.933 14.187,-15.98 13.591,-15.98L7.094,-15.98L7.094,-3.971C7.094,-3.069 7.266,-2.288 7.611,-1.631C7.955,-0.972 8.754,-0.642 10.009,-0.642L15.037,-0.642C16.246,-0.642 17.242,-0.819 18.021,-1.172C18.802,-1.523 19.418,-2.013 19.87,-2.64C20.32,-3.268 20.7,-4.025 21.006,-4.913L21.328,-4.913L20.157,0.39L0,0.39L0,0.023L0.459,0.023C1.179,0.023 1.883,-0.268 2.572,-0.849C3.26,-1.431 3.604,-2.379 3.604,-3.696L3.604,-29.179C3.604,-30.221 3.371,-31.123 2.904,-31.889C2.437,-32.655 1.622,-33.037 0.459,-33.037L0,-33.037Z" style="fill:rgb(13,34,35);fill-rule:nonzero;"/>
            </g>
        </g>
        <g transform="matrix(5.55556,0,0,5.55556,0,0)">
            <g transform="matrix(1,0,0,1,525.81,223.745)">
                <path d="M0,-33.037L0,-33.427L20.157,-33.427L20.157,-28.101L19.836,-28.101C19.836,-30.947 17.937,-32.371 14.142,-32.371L7.094,-32.371L7.094,-17.011L13.292,-17.011C14.516,-17.011 15.611,-17.211 16.576,-17.609C17.539,-18.007 18.09,-18.918 18.228,-20.34L18.572,-20.34L18.572,-12.673L18.228,-12.673C18.09,-13.546 17.83,-14.214 17.447,-14.682C17.065,-15.149 16.686,-15.458 16.311,-15.611C15.935,-15.764 15.603,-15.841 15.312,-15.841C14.761,-15.933 14.187,-15.98 13.591,-15.98L7.094,-15.98L7.094,-3.971C7.094,-3.069 7.266,-2.288 7.611,-1.631C7.955,-0.972 8.754,-0.642 10.009,-0.642L15.037,-0.642C16.246,-0.642 17.242,-0.819 18.021,-1.172C18.801,-1.523 19.418,-2.013 19.87,-2.64C20.32,-3.268 20.7,-4.025 21.006,-4.913L21.328,-4.913L20.157,0.39L0,0.39L0,0.023L0.459,0.023C1.179,0.023 1.883,-0.268 2.571,-0.849C3.26,-1.431 3.604,-2.379 3.604,-3.696L3.604,-29.179C3.604,-30.221 3.37,-31.123 2.904,-31.889C2.437,-32.655 1.622,-33.037 0.459,-33.037L0,-33.037Z" style="fill:rgb(13,34,35);fill-rule:nonzero;"/>
            </g>
        </g>
        <g transform="matrix(5.55556,0,0,5.55556,0,0)">
            <g transform="matrix(1,0,0,1,578.683,215.869)">
                <path d="M0,-18.962L-0.368,-18.962C-0.537,-21.166 -1.179,-22.593 -2.297,-23.243C-3.414,-23.895 -4.791,-24.219 -6.429,-24.219L-13.156,-24.219L-13.156,4.179C-13.156,6.582 -11.932,7.823 -9.482,7.898L-9.482,8.265L-20.25,8.265L-20.25,7.898C-19.239,7.868 -18.386,7.574 -17.689,7.015C-16.994,6.456 -16.645,5.511 -16.645,4.179L-16.645,-24.219L-23.372,-24.219C-25.01,-24.219 -26.384,-23.895 -27.493,-23.243C-28.603,-22.593 -29.249,-21.166 -29.433,-18.962L-29.8,-18.962L-29.8,-27.227L-29.433,-27.227C-29.188,-26.845 -28.974,-26.561 -28.79,-26.377C-28.607,-26.194 -28.369,-26.037 -28.078,-25.907C-27.788,-25.776 -27.446,-25.686 -27.057,-25.632C-26.666,-25.578 -26.204,-25.551 -25.667,-25.551L-3.766,-25.551C-2.312,-25.551 -1.179,-26.111 -0.368,-27.227L0,-27.227L0,-18.962Z" style="fill:rgb(13,34,35);fill-rule:nonzero;"/>
            </g>
        </g>
        <g transform="matrix(5.55556,0,0,5.55556,0,0)">
            <g transform="matrix(1,0,0,1,260.01,243.754)">
                <path d="M0,-13.013L1.3,-13.013L1.3,-7.554L7.926,-7.554L7.926,-13.013L9.226,-13.013L9.226,0L7.926,0L7.926,-6.282L1.3,-6.282L1.3,0L0,0L0,-13.013Z" style="fill:rgb(136,59,32);fill-rule:nonzero;"/>
            </g>
        </g>
        <g transform="matrix(5.55556,0,0,5.55556,0,0)">
            <g transform="matrix(1,0,0,1,276.755,244.001)">
                <path d="M0,-10.119C1.483,-10.119 2.712,-9.582 3.686,-8.51C4.572,-7.53 5.015,-6.372 5.015,-5.033C5.015,-3.688 4.547,-2.513 3.611,-1.508C2.674,-0.502 1.471,0 0,0C-1.477,0 -2.684,-0.502 -3.62,-1.508C-4.556,-2.513 -5.024,-3.688 -5.024,-5.033C-5.024,-6.366 -4.582,-7.521 -3.695,-8.501C-2.721,-9.579 -1.489,-10.119 0,-10.119M-0.004,-8.908C-1.034,-8.908 -1.919,-8.527 -2.659,-7.766C-3.398,-7.006 -3.768,-6.086 -3.768,-5.007C-3.768,-4.311 -3.6,-3.662 -3.263,-3.061C-2.925,-2.458 -2.47,-1.995 -1.895,-1.667C-1.321,-1.341 -0.691,-1.176 -0.004,-1.176C0.682,-1.176 1.312,-1.341 1.886,-1.667C2.46,-1.995 2.916,-2.458 3.253,-3.061C3.591,-3.662 3.76,-4.311 3.76,-5.007C3.76,-6.086 3.388,-7.006 2.646,-7.766C1.902,-8.527 1.02,-8.908 -0.004,-8.908" style="fill:rgb(136,59,32);fill-rule:nonzero;"/>
            </g>
        </g>
        <g transform="matrix(5.55556,0,0,5.55556,0,0)">
            <g transform="matrix(1,0,0,1,283.903,244.001)">
                <path d="M0,-9.872L1.238,-9.872L1.238,-5.379C1.238,-4.282 1.297,-3.526 1.415,-3.113C1.593,-2.524 1.93,-2.058 2.43,-1.716C2.928,-1.374 3.524,-1.202 4.214,-1.202C4.906,-1.202 5.492,-1.37 5.973,-1.702C6.454,-2.037 6.787,-2.474 6.97,-3.016C7.094,-3.387 7.156,-4.175 7.156,-5.379L7.156,-9.872L8.421,-9.872L8.421,-5.148C8.421,-3.82 8.266,-2.822 7.957,-2.149C7.647,-1.476 7.181,-0.951 6.559,-0.57C5.937,-0.189 5.157,0 4.22,0C3.281,0 2.498,-0.189 1.871,-0.57C1.243,-0.951 0.774,-1.482 0.464,-2.164C0.155,-2.845 0,-3.869 0,-5.236L0,-9.872Z" style="fill:rgb(136,59,32);fill-rule:nonzero;"/>
            </g>
        </g>
        <g transform="matrix(5.55556,0,0,5.55556,0,0)">
            <g transform="matrix(1,0,0,1,299.913,242.702)">
                <path d="M0,-7.521L-0.796,-6.698C-1.458,-7.341 -2.106,-7.663 -2.738,-7.663C-3.14,-7.663 -3.485,-7.53 -3.771,-7.264C-4.059,-6.999 -4.201,-6.69 -4.201,-6.335C-4.201,-6.023 -4.083,-5.726 -3.847,-5.441C-3.61,-5.153 -3.114,-4.814 -2.358,-4.424C-1.436,-3.948 -0.81,-3.486 -0.478,-3.044C-0.154,-2.597 0.009,-2.091 0.009,-1.532C0.009,-0.74 -0.268,-0.072 -0.824,0.476C-1.379,1.025 -2.073,1.299 -2.905,1.299C-3.461,1.299 -3.991,1.179 -4.496,0.936C-5.001,0.694 -5.419,0.362 -5.749,-0.062L-4.971,-0.948C-4.338,-0.234 -3.668,0.123 -2.959,0.123C-2.462,0.123 -2.039,-0.036 -1.691,-0.355C-1.341,-0.674 -1.168,-1.048 -1.168,-1.48C-1.168,-1.832 -1.282,-2.148 -1.513,-2.425C-1.744,-2.696 -2.264,-3.038 -3.074,-3.451C-3.942,-3.899 -4.533,-4.342 -4.846,-4.779C-5.16,-5.215 -5.316,-5.713 -5.316,-6.274C-5.316,-7.004 -5.067,-7.612 -4.567,-8.096C-4.069,-8.579 -3.438,-8.82 -2.676,-8.82C-1.79,-8.82 -0.898,-8.387 0,-7.521" style="fill:rgb(136,59,32);fill-rule:nonzero;"/>
            </g>
        </g>
        <g transform="matrix(5.55556,0,0,5.55556,0,0)">
            <g transform="matrix(1,0,0,1,302.536,243.754)">
                <path d="M0,-13.587C0.282,-13.587 0.523,-13.487 0.722,-13.287C0.922,-13.088 1.022,-12.845 1.022,-12.562C1.022,-12.285 0.922,-12.046 0.722,-11.845C0.523,-11.644 0.282,-11.545 0,-11.545C-0.276,-11.545 -0.514,-11.644 -0.714,-11.845C-0.914,-12.046 -1.013,-12.285 -1.013,-12.562C-1.013,-12.845 -0.914,-13.088 -0.714,-13.287C-0.514,-13.487 -0.276,-13.587 0,-13.587M-0.615,-9.625L0.623,-9.625L0.623,0L-0.615,0L-0.615,-9.625Z" style="fill:rgb(136,59,32);fill-rule:nonzero;"/>
            </g>
        </g>
        <g transform="matrix(5.55556,0,0,5.55556,0,0)">
            <g transform="matrix(1,0,0,1,305.734,243.507)">
                <path d="M0,-9.378L1.238,-9.378L1.238,-7.653C1.734,-8.313 2.283,-8.808 2.884,-9.134C3.485,-9.462 4.14,-9.625 4.848,-9.625C5.567,-9.625 6.205,-9.443 6.762,-9.076C7.32,-8.711 7.732,-8.219 7.996,-7.6C8.262,-6.981 8.395,-6.017 8.395,-4.706L8.395,0.247L7.156,0.247L7.156,-4.345C7.156,-5.454 7.11,-6.193 7.019,-6.565C6.875,-7.202 6.6,-7.681 6.193,-8.003C5.786,-8.323 5.255,-8.485 4.6,-8.485C3.851,-8.485 3.18,-8.236 2.588,-7.741C1.995,-7.246 1.604,-6.632 1.416,-5.901C1.297,-5.423 1.238,-4.55 1.238,-3.283L1.238,0.247L0,0.247L0,-9.378Z" style="fill:rgb(136,59,32);fill-rule:nonzero;"/>
            </g>
        </g>
        <g transform="matrix(5.55556,0,0,5.55556,0,0)">
            <g transform="matrix(1,0,0,1,325.08,247.274)">
                <path d="M0,-13.145L1.238,-13.145L1.238,-5.475C1.238,-4.126 1.121,-3.137 0.885,-2.512C0.56,-1.628 -0.003,-0.946 -0.805,-0.469C-1.607,0.009 -2.571,0.247 -3.698,0.247C-4.523,0.247 -5.264,0.132 -5.922,-0.102C-6.58,-0.336 -7.115,-0.651 -7.527,-1.043C-7.94,-1.436 -8.321,-2.012 -8.669,-2.769L-7.324,-2.769C-6.958,-2.131 -6.486,-1.661 -5.907,-1.353C-5.329,-1.046 -4.611,-0.893 -3.755,-0.893C-2.911,-0.893 -2.198,-1.05 -1.617,-1.365C-1.035,-1.68 -0.62,-2.075 -0.372,-2.55C-0.124,-3.026 0,-3.795 0,-4.856L0,-5.351C-0.466,-4.761 -1.036,-4.309 -1.709,-3.993C-2.382,-3.679 -3.096,-3.52 -3.852,-3.52C-4.738,-3.52 -5.57,-3.739 -6.349,-4.179C-7.128,-4.62 -7.73,-5.21 -8.155,-5.953C-8.58,-6.696 -8.793,-7.512 -8.793,-8.404C-8.793,-9.293 -8.572,-10.124 -8.129,-10.894C-7.685,-11.663 -7.074,-12.272 -6.291,-12.719C-5.509,-13.168 -4.684,-13.392 -3.816,-13.392C-3.096,-13.392 -2.425,-13.243 -1.802,-12.946C-1.179,-12.647 -0.579,-12.156 0,-11.472L0,-13.145ZM-3.653,-12.198C-4.355,-12.198 -5.007,-12.029 -5.608,-11.689C-6.21,-11.351 -6.682,-10.882 -7.024,-10.283C-7.366,-9.686 -7.537,-9.037 -7.537,-8.342C-7.537,-7.287 -7.183,-6.412 -6.475,-5.722C-5.767,-5.032 -4.85,-4.689 -3.724,-4.689C-2.586,-4.689 -1.671,-5.029 -0.977,-5.714C-0.284,-6.398 0.062,-7.298 0.062,-8.413C0.062,-9.137 -0.098,-9.785 -0.416,-10.354C-0.734,-10.924 -1.185,-11.373 -1.769,-11.703C-2.353,-12.032 -2.981,-12.198 -3.653,-12.198" style="fill:rgb(136,59,32);fill-rule:nonzero;"/>
            </g>
        </g>
        <g transform="matrix(5.55556,0,0,5.55556,0,0)">
            <g transform="matrix(1,0,0,1,344.036,236.347)">
                <path d="M0,2.595L0.881,3.527C0.315,4.029 -0.222,4.463 -0.73,4.826C-0.376,5.152 0.085,5.6 0.655,6.168C1.104,6.616 1.49,7.029 1.814,7.407L-0.001,7.407L-1.726,5.629C-2.811,6.5 -3.692,7.069 -4.369,7.335C-5.048,7.6 -5.764,7.733 -6.519,7.733C-7.522,7.733 -8.327,7.446 -8.934,6.87C-9.542,6.296 -9.845,5.577 -9.845,4.717C-9.845,4.067 -9.64,3.418 -9.23,2.765C-8.821,2.113 -7.986,1.289 -6.725,0.292C-7.437,-0.569 -7.895,-1.204 -8.098,-1.614C-8.302,-2.024 -8.403,-2.413 -8.403,-2.786C-8.403,-3.434 -8.153,-3.969 -7.651,-4.393C-7.073,-4.89 -6.354,-5.138 -5.493,-5.138C-4.95,-5.138 -4.455,-5.028 -4.007,-4.809C-3.559,-4.593 -3.217,-4.298 -2.981,-3.93C-2.745,-3.562 -2.627,-3.17 -2.627,-2.757C-2.627,-2.321 -2.781,-1.856 -3.088,-1.365C-3.395,-0.872 -4,-0.242 -4.904,0.524L-2.931,2.595L-1.638,3.905C-0.944,3.395 -0.398,2.959 0,2.595M-5.867,1.273C-6.972,2.106 -7.696,2.768 -8.039,3.26C-8.383,3.752 -8.554,4.208 -8.554,4.627C-8.554,5.123 -8.344,5.562 -7.924,5.942C-7.505,6.322 -6.991,6.512 -6.382,6.512C-5.922,6.512 -5.469,6.418 -5.026,6.229C-4.329,5.929 -3.53,5.418 -2.629,4.696L-4.681,2.583C-5.036,2.211 -5.43,1.775 -5.867,1.273M-5.708,-0.449C-5.076,-0.938 -4.6,-1.419 -4.281,-1.891C-4.057,-2.227 -3.945,-2.524 -3.945,-2.784C-3.945,-3.086 -4.092,-3.344 -4.384,-3.562C-4.677,-3.782 -5.066,-3.89 -5.551,-3.89C-6.012,-3.89 -6.387,-3.779 -6.677,-3.553C-6.967,-3.33 -7.112,-3.064 -7.112,-2.757C-7.112,-2.521 -7.053,-2.301 -6.934,-2.094C-6.644,-1.594 -6.236,-1.045 -5.708,-0.449" style="fill:rgb(136,59,32);fill-rule:nonzero;"/>
            </g>
        </g>
        <g transform="matrix(5.55556,0,0,5.55556,0,0)">
            <g transform="matrix(1,0,0,1,365.036,241.338)">
                <path d="M0,-8.182L-1.026,-7.396C-1.593,-8.131 -2.272,-8.692 -3.066,-9.071C-3.859,-9.451 -4.73,-9.641 -5.679,-9.641C-6.717,-9.641 -7.678,-9.393 -8.563,-8.894C-9.448,-8.396 -10.133,-7.727 -10.62,-6.886C-11.106,-6.046 -11.349,-5.101 -11.349,-4.051C-11.349,-2.465 -10.806,-1.14 -9.718,-0.079C-8.629,0.981 -7.257,1.512 -5.6,1.512C-3.778,1.512 -2.253,0.8 -1.026,-0.628L0,0.15C-0.649,0.976 -1.458,1.615 -2.428,2.067C-3.399,2.517 -4.482,2.742 -5.679,2.742C-7.956,2.742 -9.752,1.986 -11.066,0.469C-12.169,-0.811 -12.72,-2.356 -12.72,-4.165C-12.72,-6.071 -12.053,-7.673 -10.717,-8.974C-9.381,-10.273 -7.708,-10.924 -5.697,-10.924C-4.482,-10.924 -3.385,-10.683 -2.407,-10.204C-1.427,-9.722 -0.626,-9.049 0,-8.182" style="fill:rgb(136,59,32);fill-rule:nonzero;"/>
            </g>
        </g>
        <g transform="matrix(5.55556,0,0,5.55556,0,0)">
            <g transform="matrix(1,0,0,1,371.999,244.001)">
                <path d="M0,-10.119C1.482,-10.119 2.71,-9.582 3.686,-8.51C4.572,-7.53 5.015,-6.372 5.015,-5.033C5.015,-3.688 4.546,-2.513 3.61,-1.508C2.674,-0.502 1.471,0 0,0C-1.478,0 -2.685,-0.502 -3.621,-1.508C-4.557,-2.513 -5.025,-3.688 -5.025,-5.033C-5.025,-6.366 -4.583,-7.521 -3.696,-8.501C-2.721,-9.579 -1.49,-10.119 0,-10.119M-0.006,-8.908C-1.035,-8.908 -1.92,-8.527 -2.659,-7.766C-3.399,-7.006 -3.769,-6.086 -3.769,-5.007C-3.769,-4.311 -3.6,-3.662 -3.263,-3.061C-2.926,-2.458 -2.47,-1.995 -1.895,-1.667C-1.322,-1.341 -0.691,-1.176 -0.006,-1.176C0.681,-1.176 1.312,-1.341 1.886,-1.667C2.459,-1.995 2.915,-2.458 3.253,-3.061C3.589,-3.662 3.758,-4.311 3.758,-5.007C3.758,-6.086 3.387,-7.006 2.644,-7.766C1.902,-8.527 1.019,-8.908 -0.006,-8.908" style="fill:rgb(136,59,32);fill-rule:nonzero;"/>
            </g>
        </g>
        <g transform="matrix(5.55556,0,0,5.55556,0,0)">
            <g transform="matrix(1,0,0,1,379.296,243.507)">
                <path d="M0,-9.378L1.238,-9.378L1.238,-7.714C1.67,-8.329 2.112,-8.776 2.566,-9.059C3.193,-9.437 3.851,-9.625 4.542,-9.625C5.008,-9.625 5.451,-9.534 5.87,-9.351C6.29,-9.169 6.632,-8.925 6.898,-8.622C7.163,-8.317 7.394,-7.883 7.589,-7.317C8,-8.072 8.516,-8.645 9.133,-9.037C9.751,-9.429 10.415,-9.625 11.126,-9.625C11.792,-9.625 12.379,-9.457 12.887,-9.121C13.397,-8.785 13.775,-8.317 14.022,-7.714C14.268,-7.114 14.393,-6.21 14.393,-5.008L14.393,0.247L13.127,0.247L13.127,-5.008C13.127,-6.04 13.053,-6.75 12.907,-7.135C12.76,-7.521 12.509,-7.832 12.152,-8.069C11.798,-8.304 11.373,-8.423 10.88,-8.423C10.279,-8.423 9.732,-8.245 9.234,-7.891C8.738,-7.538 8.375,-7.066 8.146,-6.476C7.916,-5.887 7.803,-4.902 7.803,-3.523L7.803,0.247L6.564,0.247L6.564,-4.68C6.564,-5.842 6.492,-6.632 6.348,-7.047C6.202,-7.463 5.951,-7.795 5.59,-8.046C5.231,-8.297 4.803,-8.423 4.308,-8.423C3.735,-8.423 3.201,-8.251 2.702,-7.905C2.204,-7.561 1.836,-7.096 1.596,-6.512C1.358,-5.927 1.238,-5.035 1.238,-3.831L1.238,0.247L0,0.247L0,-9.378Z" style="fill:rgb(136,59,32);fill-rule:nonzero;"/>
            </g>
        </g>
        <g transform="matrix(5.55556,0,0,5.55556,0,0)">
            <g transform="matrix(1,0,0,1,396.289,243.507)">
                <path d="M0,-9.378L1.238,-9.378L1.238,-7.714C1.67,-8.329 2.112,-8.776 2.566,-9.059C3.193,-9.437 3.851,-9.625 4.542,-9.625C5.008,-9.625 5.451,-9.534 5.87,-9.351C6.29,-9.169 6.632,-8.925 6.898,-8.622C7.163,-8.317 7.394,-7.883 7.589,-7.317C8,-8.072 8.515,-8.645 9.133,-9.037C9.751,-9.429 10.415,-9.625 11.126,-9.625C11.792,-9.625 12.379,-9.457 12.887,-9.121C13.397,-8.785 13.775,-8.317 14.022,-7.714C14.268,-7.114 14.392,-6.21 14.392,-5.008L14.392,0.247L13.127,0.247L13.127,-5.008C13.127,-6.04 13.053,-6.75 12.907,-7.135C12.76,-7.521 12.509,-7.832 12.152,-8.069C11.797,-8.304 11.373,-8.423 10.88,-8.423C10.279,-8.423 9.732,-8.245 9.234,-7.891C8.738,-7.538 8.375,-7.066 8.146,-6.476C7.916,-5.887 7.802,-4.902 7.802,-3.523L7.802,0.247L6.564,0.247L6.564,-4.68C6.564,-5.842 6.492,-6.632 6.348,-7.047C6.202,-7.463 5.951,-7.795 5.59,-8.046C5.231,-8.297 4.803,-8.423 4.308,-8.423C3.735,-8.423 3.201,-8.251 2.702,-7.905C2.204,-7.561 1.836,-7.096 1.596,-6.512C1.358,-5.927 1.238,-5.035 1.238,-3.831L1.238,0.247L0,0.247L0,-9.378Z" style="fill:rgb(136,59,32);fill-rule:nonzero;"/>
            </g>
        </g>
        <g transform="matrix(5.55556,0,0,5.55556,0,0)">
            <g transform="matrix(1,0,0,1,413.131,244.001)">
                <path d="M0,-9.872L1.238,-9.872L1.238,-5.379C1.238,-4.282 1.298,-3.526 1.416,-3.113C1.592,-2.524 1.931,-2.058 2.429,-1.716C2.928,-1.374 3.523,-1.202 4.214,-1.202C4.906,-1.202 5.492,-1.37 5.974,-1.702C6.454,-2.037 6.786,-2.474 6.97,-3.016C7.094,-3.387 7.156,-4.175 7.156,-5.379L7.156,-9.872L8.422,-9.872L8.422,-5.148C8.422,-3.82 8.266,-2.822 7.957,-2.149C7.647,-1.476 7.18,-0.951 6.558,-0.57C5.936,-0.189 5.157,0 4.219,0C3.282,0 2.498,-0.189 1.87,-0.57C1.243,-0.951 0.774,-1.482 0.465,-2.164C0.154,-2.845 0,-3.869 0,-5.236L0,-9.872Z" style="fill:rgb(136,59,32);fill-rule:nonzero;"/>
            </g>
        </g>
        <g transform="matrix(5.55556,0,0,5.55556,0,0)">
            <g transform="matrix(1,0,0,1,424.304,243.507)">
                <path d="M0,-9.378L1.238,-9.378L1.238,-7.653C1.733,-8.313 2.282,-8.808 2.884,-9.134C3.485,-9.462 4.139,-9.625 4.848,-9.625C5.567,-9.625 6.206,-9.443 6.763,-9.076C7.32,-8.711 7.732,-8.219 7.997,-7.6C8.263,-6.981 8.396,-6.017 8.396,-4.706L8.396,0.247L7.156,0.247L7.156,-4.345C7.156,-5.454 7.111,-6.193 7.019,-6.565C6.876,-7.202 6.6,-7.681 6.193,-8.003C5.786,-8.323 5.255,-8.485 4.601,-8.485C3.852,-8.485 3.181,-8.236 2.588,-7.741C1.994,-7.246 1.603,-6.632 1.416,-5.901C1.297,-5.423 1.238,-4.55 1.238,-3.283L1.238,0.247L0,0.247L0,-9.378Z" style="fill:rgb(136,59,32);fill-rule:nonzero;"/>
            </g>
        </g>
        <g transform="matrix(5.55556,0,0,5.55556,0,0)">
            <g transform="matrix(1,0,0,1,435.78,243.754)">
                <path d="M0,-13.587C0.283,-13.587 0.523,-13.487 0.723,-13.287C0.922,-13.088 1.022,-12.845 1.022,-12.562C1.022,-12.285 0.922,-12.046 0.723,-11.845C0.523,-11.644 0.283,-11.545 0,-11.545C-0.276,-11.545 -0.514,-11.644 -0.713,-11.845C-0.912,-12.046 -1.012,-12.285 -1.012,-12.562C-1.012,-12.845 -0.912,-13.088 -0.713,-13.287C-0.514,-13.487 -0.276,-13.587 0,-13.587M-0.615,-9.625L0.623,-9.625L0.623,0L-0.615,0L-0.615,-9.625Z" style="fill:rgb(136,59,32);fill-rule:nonzero;"/>
            </g>
        </g>
        <g transform="matrix(5.55556,0,0,5.55556,0,0)">
            <g transform="matrix(1,0,0,1,440.058,243.754)">
                <path d="M0,-13.199L1.238,-13.199L1.238,-9.625L3.203,-9.625L3.203,-8.554L1.238,-8.554L1.238,0L0,0L0,-8.554L-1.69,-8.554L-1.69,-9.625L0,-9.625L0,-13.199Z" style="fill:rgb(136,59,32);fill-rule:nonzero;"/>
            </g>
        </g>
        <g transform="matrix(5.55556,0,0,5.55556,0,0)">
            <g transform="matrix(1,0,0,1,444.082,247.274)">
                <path d="M0,-13.145L1.309,-13.145L4.617,-5.734L7.828,-13.145L9.146,-13.145L3.406,0L2.097,0L3.95,-4.25L0,-13.145Z" style="fill:rgb(136,59,32);fill-rule:nonzero;"/>
            </g>
        </g>
        <g transform="matrix(5.55556,0,0,5.55556,0,0)">
            <g transform="matrix(1,0,0,1,460.049,230.741)">
                <path d="M0,13.013L0,0L2.698,0C4.645,0 6.056,0.156 6.935,0.468C8.198,0.911 9.184,1.677 9.894,2.768C10.605,3.86 10.96,5.16 10.96,6.67C10.96,7.973 10.679,9.12 10.116,10.11C9.552,11.102 8.821,11.832 7.922,12.304C7.022,12.776 5.762,13.013 4.139,13.013L0,13.013ZM1.247,11.783L2.751,11.783C4.549,11.783 5.798,11.671 6.493,11.447C7.472,11.128 8.241,10.556 8.801,9.728C9.363,8.9 9.643,7.888 9.643,6.691C9.643,5.436 9.338,4.365 8.73,3.474C8.123,2.585 7.277,1.975 6.192,1.646C5.378,1.397 4.037,1.273 2.168,1.273L1.247,1.273L1.247,11.783Z" style="fill:rgb(136,59,32);fill-rule:nonzero;"/>
            </g>
        </g>
        <g transform="matrix(5.55556,0,0,5.55556,0,0)">
            <g transform="matrix(1,0,0,1,481.43,237.323)">
                <path d="M0,3.237L1.044,3.785C0.701,4.457 0.306,4.999 -0.143,5.412C-0.59,5.825 -1.095,6.139 -1.657,6.356C-2.217,6.569 -2.852,6.678 -3.561,6.678C-5.129,6.678 -6.358,6.163 -7.244,5.135C-8.128,4.104 -8.572,2.941 -8.572,1.645C-8.572,0.424 -8.196,-0.664 -7.447,-1.62C-6.496,-2.835 -5.225,-3.441 -3.631,-3.441C-1.99,-3.441 -0.68,-2.82 0.3,-1.575C0.997,-0.696 1.351,0.401 1.362,1.716L-7.297,1.716C-7.274,2.834 -6.916,3.749 -6.226,4.465C-5.535,5.18 -4.682,5.536 -3.666,5.536C-3.177,5.536 -2.699,5.452 -2.236,5.282C-1.772,5.112 -1.378,4.884 -1.054,4.604C-0.729,4.321 -0.378,3.865 0,3.237M0,0.645C-0.165,-0.015 -0.406,-0.543 -0.722,-0.938C-1.038,-1.334 -1.455,-1.651 -1.974,-1.894C-2.494,-2.136 -3.041,-2.256 -3.612,-2.256C-4.558,-2.256 -5.37,-1.952 -6.049,-1.345C-6.545,-0.904 -6.921,-0.24 -7.173,0.645L0,0.645Z" style="fill:rgb(136,59,32);fill-rule:nonzero;"/>
            </g>
        </g>
        <g transform="matrix(5.55556,0,0,5.55556,0,0)">
            <g transform="matrix(1,0,0,1,484.19,243.754)">
                <path d="M0,-9.625L1.318,-9.625L4.548,-2.609L7.74,-9.625L9.067,-9.625L4.662,0L4.431,0L0,-9.625Z" style="fill:rgb(136,59,32);fill-rule:nonzero;"/>
            </g>
        </g>
        <g transform="matrix(5.55556,0,0,5.55556,0,0)">
            <g transform="matrix(1,0,0,1,503.244,237.323)">
                <path d="M0,3.237L1.043,3.785C0.701,4.457 0.306,4.999 -0.143,5.412C-0.59,5.825 -1.096,6.139 -1.657,6.356C-2.217,6.569 -2.852,6.678 -3.561,6.678C-5.129,6.678 -6.358,6.163 -7.244,5.135C-8.129,4.104 -8.572,2.941 -8.572,1.645C-8.572,0.424 -8.196,-0.664 -7.447,-1.62C-6.496,-2.835 -5.225,-3.441 -3.631,-3.441C-1.99,-3.441 -0.68,-2.82 0.3,-1.575C0.997,-0.696 1.351,0.401 1.362,1.716L-7.297,1.716C-7.274,2.834 -6.916,3.749 -6.226,4.465C-5.535,5.18 -4.682,5.536 -3.666,5.536C-3.177,5.536 -2.699,5.452 -2.236,5.282C-1.772,5.112 -1.378,4.884 -1.054,4.604C-0.729,4.321 -0.378,3.865 0,3.237M0,0.645C-0.165,-0.015 -0.406,-0.543 -0.722,-0.938C-1.038,-1.334 -1.455,-1.651 -1.974,-1.894C-2.494,-2.136 -3.041,-2.256 -3.613,-2.256C-4.558,-2.256 -5.371,-1.952 -6.049,-1.345C-6.545,-0.904 -6.921,-0.24 -7.173,0.645L0,0.645Z" style="fill:rgb(136,59,32);fill-rule:nonzero;"/>
            </g>
        </g>
        <g transform="matrix(5.55556,0,0,5.55556,0,0)">
            <g transform="matrix(1,0,0,1,0,-137.832)">
                <rect x="506.728" y="368.246" width="1.238" height="13.34" style="fill:rgb(136,59,32);"/>
            </g>
        </g>
        <g transform="matrix(5.55556,0,0,5.55556,0,0)">
            <g transform="matrix(1,0,0,1,515.098,244.001)">
                <path d="M0,-10.119C1.482,-10.119 2.71,-9.582 3.686,-8.51C4.572,-7.53 5.015,-6.372 5.015,-5.033C5.015,-3.688 4.546,-2.513 3.61,-1.508C2.674,-0.502 1.471,0 0,0C-1.478,0 -2.685,-0.502 -3.621,-1.508C-4.556,-2.513 -5.026,-3.688 -5.026,-5.033C-5.026,-6.366 -4.582,-7.521 -3.696,-8.501C-2.721,-9.579 -1.49,-10.119 0,-10.119M-0.006,-8.908C-1.035,-8.908 -1.92,-8.527 -2.66,-7.766C-3.399,-7.006 -3.768,-6.086 -3.768,-5.007C-3.768,-4.311 -3.601,-3.662 -3.263,-3.061C-2.926,-2.458 -2.469,-1.995 -1.896,-1.667C-1.322,-1.341 -0.691,-1.176 -0.006,-1.176C0.681,-1.176 1.312,-1.341 1.886,-1.667C2.459,-1.995 2.915,-2.458 3.253,-3.061C3.589,-3.662 3.758,-4.311 3.758,-5.007C3.758,-6.086 3.387,-7.006 2.644,-7.766C1.902,-8.527 1.019,-8.908 -0.006,-8.908" style="fill:rgb(136,59,32);fill-rule:nonzero;"/>
            </g>
        </g>
        <g transform="matrix(5.55556,0,0,5.55556,0,0)">
            <g transform="matrix(1,0,0,1,522.421,247.027)">
                <path d="M0,-12.898L1.238,-12.898L1.238,-11.129C1.728,-11.801 2.291,-12.305 2.927,-12.641C3.563,-12.977 4.274,-13.145 5.056,-13.145C6.422,-13.145 7.593,-12.653 8.564,-11.668C9.537,-10.683 10.022,-9.498 10.022,-8.112C10.022,-6.696 9.542,-5.495 8.578,-4.508C7.615,-3.52 6.453,-3.026 5.092,-3.026C4.325,-3.026 3.623,-3.185 2.98,-3.504C2.338,-3.821 1.758,-4.298 1.238,-4.927L1.238,0.247L0,0.247L0,-12.898ZM4.955,-11.951C3.884,-11.951 2.982,-11.578 2.249,-10.83C1.517,-10.081 1.15,-9.15 1.15,-8.037C1.15,-7.307 1.313,-6.65 1.641,-6.067C1.967,-5.484 2.435,-5.022 3.044,-4.679C3.653,-4.338 4.295,-4.168 4.972,-4.168C5.636,-4.168 6.262,-4.339 6.847,-4.684C7.433,-5.028 7.899,-5.51 8.245,-6.128C8.593,-6.747 8.766,-7.395 8.766,-8.073C8.766,-8.756 8.595,-9.404 8.25,-10.016C7.906,-10.628 7.443,-11.104 6.86,-11.443C6.278,-11.782 5.643,-11.951 4.955,-11.951" style="fill:rgb(136,59,32);fill-rule:nonzero;"/>
            </g>
        </g>
        <g transform="matrix(5.55556,0,0,5.55556,0,0)">
            <g transform="matrix(1,0,0,1,534.752,243.507)">
                <path d="M0,-9.378L1.238,-9.378L1.238,-7.714C1.67,-8.329 2.111,-8.776 2.566,-9.059C3.193,-9.437 3.851,-9.625 4.542,-9.625C5.008,-9.625 5.451,-9.534 5.87,-9.351C6.29,-9.169 6.632,-8.925 6.897,-8.622C7.163,-8.317 7.394,-7.883 7.589,-7.317C8,-8.072 8.515,-8.645 9.133,-9.037C9.751,-9.429 10.415,-9.625 11.126,-9.625C11.792,-9.625 12.379,-9.457 12.887,-9.121C13.397,-8.785 13.775,-8.317 14.022,-7.714C14.268,-7.114 14.392,-6.21 14.392,-5.008L14.392,0.247L13.127,0.247L13.127,-5.008C13.127,-6.04 13.053,-6.75 12.907,-7.135C12.76,-7.521 12.509,-7.832 12.152,-8.069C11.797,-8.304 11.373,-8.423 10.88,-8.423C10.279,-8.423 9.732,-8.245 9.234,-7.891C8.738,-7.538 8.375,-7.066 8.146,-6.476C7.917,-5.887 7.802,-4.902 7.802,-3.523L7.802,0.247L6.564,0.247L6.564,-4.68C6.564,-5.842 6.492,-6.632 6.348,-7.047C6.202,-7.463 5.951,-7.795 5.59,-8.046C5.23,-8.297 4.803,-8.423 4.308,-8.423C3.735,-8.423 3.201,-8.251 2.702,-7.905C2.204,-7.561 1.836,-7.096 1.596,-6.512C1.358,-5.927 1.238,-5.035 1.238,-3.831L1.238,0.247L0,0.247L0,-9.378Z" style="fill:rgb(136,59,32);fill-rule:nonzero;"/>
            </g>
        </g>
        <g transform="matrix(5.55556,0,0,5.55556,0,0)">
            <g transform="matrix(1,0,0,1,559.857,237.323)">
                <path d="M0,3.237L1.043,3.785C0.701,4.457 0.306,4.999 -0.143,5.412C-0.59,5.825 -1.096,6.139 -1.657,6.356C-2.217,6.569 -2.852,6.678 -3.561,6.678C-5.13,6.678 -6.358,6.163 -7.244,5.135C-8.129,4.104 -8.572,2.941 -8.572,1.645C-8.572,0.424 -8.197,-0.664 -7.448,-1.62C-6.496,-2.835 -5.225,-3.441 -3.631,-3.441C-1.99,-3.441 -0.68,-2.82 0.3,-1.575C0.997,-0.696 1.351,0.401 1.362,1.716L-7.297,1.716C-7.274,2.834 -6.916,3.749 -6.226,4.465C-5.535,5.18 -4.682,5.536 -3.666,5.536C-3.177,5.536 -2.699,5.452 -2.236,5.282C-1.773,5.112 -1.379,4.884 -1.054,4.604C-0.729,4.321 -0.378,3.865 0,3.237M0,0.645C-0.165,-0.015 -0.406,-0.543 -0.722,-0.938C-1.038,-1.334 -1.455,-1.651 -1.974,-1.894C-2.494,-2.136 -3.041,-2.256 -3.613,-2.256C-4.558,-2.256 -5.371,-1.952 -6.049,-1.345C-6.545,-0.904 -6.921,-0.24 -7.173,0.645L0,0.645Z" style="fill:rgb(136,59,32);fill-rule:nonzero;"/>
            </g>
        </g>
        <g transform="matrix(5.55556,0,0,5.55556,0,0)">
            <g transform="matrix(1,0,0,1,563.529,243.507)">
                <path d="M0,-9.378L1.238,-9.378L1.238,-7.653C1.733,-8.313 2.282,-8.808 2.884,-9.134C3.485,-9.462 4.139,-9.625 4.848,-9.625C5.567,-9.625 6.206,-9.443 6.763,-9.076C7.32,-8.711 7.732,-8.219 7.997,-7.6C8.263,-6.981 8.396,-6.017 8.396,-4.706L8.396,0.247L7.156,0.247L7.156,-4.345C7.156,-5.454 7.111,-6.193 7.019,-6.565C6.876,-7.202 6.6,-7.681 6.193,-8.003C5.786,-8.323 5.255,-8.485 4.601,-8.485C3.852,-8.485 3.181,-8.236 2.588,-7.741C1.995,-7.246 1.604,-6.632 1.416,-5.901C1.297,-5.423 1.238,-4.55 1.238,-3.283L1.238,0.247L0,0.247L0,-9.378Z" style="fill:rgb(136,59,32);fill-rule:nonzero;"/>
            </g>
        </g>
        <g transform="matrix(5.55556,0,0,5.55556,0,0)">
            <g transform="matrix(1,0,0,1,575.657,243.754)">
                <path d="M0,-13.199L1.238,-13.199L1.238,-9.625L3.203,-9.625L3.203,-8.554L1.238,-8.554L1.238,0L0,0L0,-8.554L-1.69,-8.554L-1.69,-9.625L0,-9.625L0,-13.199Z" style="fill:rgb(136,59,32);fill-rule:nonzero;"/>
            </g>
        </g>
        <g transform="matrix(5.55556,0,0,5.55556,0,0)">
            <g transform="matrix(1,0,0,1,237.532,305.583)">
                <path d="M0,0.001C0,4.894 -3.968,8.861 -8.861,8.861C-13.754,8.861 -17.721,4.894 -17.721,0.001C-17.721,-4.892 -13.754,-8.86 -8.861,-8.86C-3.968,-8.86 0,-4.892 0,0.001" style="fill:rgb(64,93,89);fill-rule:nonzero;"/>
            </g>
        </g>
        <g transform="matrix(5.55556,0,0,5.55556,0,0)">
            <g transform="matrix(1,0,0,1,226.252,180.93)">
                <path d="M0,17.582L3.497,4.201L-40.863,0L0,17.582Z" style="fill:rgb(13,34,35);fill-rule:nonzero;"/>
            </g>
        </g>
        <g transform="matrix(5.55556,0,0,5.55556,0,0)">
            <g transform="matrix(1,0,0,1,285.926,102.851)">
                <path d="M0,25.543L8.939,22.984L-2.601,0L0,25.543Z" style="fill:rgb(13,34,35);fill-rule:nonzero;"/>
            </g>
        </g>
        <g transform="matrix(5.55556,0,0,5.55556,0,0)">
            <g transform="matrix(1,0,0,1,255.676,293.056)">
                <path d="M0,-8.739L-6.727,-15.158L-20.723,6.419L0,-8.739Z" style="fill:rgb(13,34,35);fill-rule:nonzero;"/>
            </g>
        </g>
        <g transform="matrix(5.55556,0,0,5.55556,0,0)">
            <g transform="matrix(1,0,0,1,186.798,178.769)">
                <path d="M0,-1C0.276,5.309 -4.614,10.647 -10.923,10.923C-17.232,11.199 -22.57,6.309 -22.846,0C-23.122,-6.309 -18.232,-11.646 -11.923,-11.923C-5.614,-12.199 -0.276,-7.309 0,-1" style="fill:rgb(106,129,58);fill-rule:nonzero;"/>
            </g>
        </g>
        <g transform="matrix(5.55556,0,0,5.55556,0,0)">
            <g transform="matrix(1,0,0,1,289.903,94.5399)">
                <path d="M0,0.001C0,4.895 -3.968,8.861 -8.861,8.861C-13.754,8.861 -17.721,4.895 -17.721,0.001C-17.721,-4.892 -13.754,-8.86 -8.861,-8.86C-3.968,-8.86 0,-4.892 0,0.001" style="fill:rgb(205,181,75);fill-rule:nonzero;"/>
            </g>
        </g>
        <g transform="matrix(5.55556,0,0,5.55556,0,0)">
            <g transform="matrix(1,0,0,1,350.423,348.495)">
                <path d="M0,-44.189L-13.343,-40.551L5.128,0L0,-44.189Z" style="fill:rgb(13,34,35);fill-rule:nonzero;"/>
            </g>
        </g>
        <g transform="matrix(5.55556,0,0,5.55556,0,0)">
            <g transform="matrix(1,0,0,1,352.22,368.099)">
                <path d="M0,-19.307C5.331,-22.691 12.397,-21.112 15.781,-15.781C19.165,-10.45 17.587,-3.385 12.256,0C6.924,3.384 -0.141,1.805 -3.526,-3.526C-6.91,-8.857 -5.331,-15.923 0,-19.307" style="fill:rgb(136,59,32);fill-rule:nonzero;"/>
            </g>
        </g>
    </g>
</svg>
